<svg width="1200" height="420" viewBox="0 0 1200 420" fill="none" xmlns="http://www.w3.org/2000/svg">
  <defs>
    <linearGradient id="orange" x1="110" y1="80" x2="350" y2="330" gradientUnits="userSpaceOnUse">
      <stop stop-color="#E47A33"/>
      <stop offset="1" stop-color="#C85C34"/>
    </linearGradient>
    <filter id="softShadow" x="60" y="50" width="360" height="330" filterUnits="userSpaceOnUse" color-interpolation-filters="sRGB">
      <feDropShadow dx="0" dy="18" stdDeviation="22" flood-color="#8C4A2F" flood-opacity="0.14"/>
    </filter>
  </defs>

  <rect width="1200" height="420" fill="#F7F1E8"/>

  <!-- App icon -->
  <g filter="url(#softShadow)">
    <rect x="110" y="90" width="250" height="250" rx="46" fill="url(#orange)"/>
  </g>

  <!-- Kanban card column / K vertical stroke -->
  <g opacity="0.96">
    <rect x="148" y="128" width="58" height="58" rx="12" fill="#FFF4E8"/>
    <rect x="148" y="198" width="58" height="58" rx="12" fill="#FFF4E8"/>
    <rect x="148" y="268" width="58" height="58" rx="12" fill="#FFF4E8"/>
    <rect x="162" y="144" width="24" height="6" rx="3" fill="#D57943" opacity="0.55"/>
    <rect x="162" y="214" width="24" height="6" rx="3" fill="#D57943" opacity="0.55"/>
    <rect x="162" y="284" width="24" height="6" rx="3" fill="#D57943" opacity="0.55"/>
  </g>

  <!-- K right strokes -->
  <path d="M238 216L310 139C326 122 355 134 355 158C355 166 352 173 347 179L295 233L351 292C366 308 354 334 332 334C324 334 317 331 311 325L238 248C229 239 229 225 238 216Z" fill="#FFF4E8"/>

  <!-- Workflow curve -->
  <path d="M193 258C219 258 215 226 242 222C262 219 258 184 286 183" stroke="#FFF8F0" stroke-width="12" stroke-linecap="round"/>
  <circle cx="193" cy="258" r="14" fill="#FFF8F0"/>
  <circle cx="286" cy="183" r="14" fill="#FFF8F0"/>
  <circle cx="193" cy="258" r="6" fill="#D66B35"/>
  <circle cx="286" cy="183" r="6" fill="#D66B35"/>

  <!-- Wordmark -->
  <text x="430" y="260" font-family="Inter, ui-sans-serif, system-ui, -apple-system, BlinkMacSystemFont, 'Segoe UI', sans-serif" font-size="104" font-weight="800" letter-spacing="-2" fill="#4B3629">KanBanTu</text>
</svg>
