<svg xmlns="http://www.w3.org/2000/svg" width="1024" height="1024" viewBox="0 0 1024 1024" shape-rendering="crispEdges">
<rect width="1024" height="1024" fill="rgb(250, 240, 232)"/>
<g>
<rect x="368" y="192" width="16" height="16" fill="#d1b39d"/>
<rect x="384" y="192" width="48" height="16" fill="#9a8373"/>
<rect x="672" y="192" width="48" height="16" fill="#9a8373"/>
<rect x="352" y="208" width="16" height="16" fill="#d1b39d"/>
<rect x="368" y="208" width="16" height="16" fill="#7e6556"/>
<rect x="384" y="208" width="32" height="16" fill="#664f43"/>
<rect x="416" y="208" width="16" height="16" fill="#7e6556"/>
<rect x="432" y="208" width="32" height="16" fill="#d1b39d"/>
<rect x="640" y="208" width="16" height="16" fill="#d1b39d"/>
<rect x="656" y="208" width="16" height="16" fill="#c7a389"/>
<rect x="672" y="208" width="48" height="16" fill="#664f43"/>
<rect x="720" y="208" width="16" height="16" fill="#c7a389"/>
<rect x="736" y="208" width="16" height="16" fill="#e8d6c6"/>
<rect x="336" y="224" width="16" height="16" fill="#e8d6c6"/>
<rect x="352" y="224" width="16" height="16" fill="#3a2b24"/>
<rect x="368" y="224" width="16" height="16" fill="#9a8373"/>
<rect x="384" y="224" width="16" height="16" fill="#e8d6c6"/>
<rect x="400" y="224" width="32" height="16" fill="#d1b39d"/>
<rect x="432" y="224" width="16" height="16" fill="#3a2b24"/>
<rect x="448" y="224" width="16" height="16" fill="#664f43"/>
<rect x="464" y="224" width="16" height="16" fill="#e8d6c6"/>
<rect x="624" y="224" width="16" height="16" fill="#e8d6c6"/>
<rect x="640" y="224" width="32" height="16" fill="#664f43"/>
<rect x="672" y="224" width="48" height="16" fill="#d1b39d"/>
<rect x="720" y="224" width="16" height="16" fill="#3a2b24"/>
<rect x="736" y="224" width="16" height="16" fill="#7e6556"/>
<rect x="336" y="240" width="16" height="16" fill="#e8d6c6"/>
<rect x="352" y="240" width="16" height="16" fill="#3a2b24"/>
<rect x="368" y="240" width="16" height="16" fill="#9a8373"/>
<rect x="384" y="240" width="16" height="16" fill="#f6ece1"/>
<rect x="400" y="240" width="32" height="16" fill="#d1b39d"/>
<rect x="432" y="240" width="16" height="16" fill="#e8d6c6"/>
<rect x="448" y="240" width="32" height="16" fill="#3a2b24"/>
<rect x="480" y="240" width="16" height="16" fill="#9a8373"/>
<rect x="608" y="240" width="16" height="16" fill="#9a8373"/>
<rect x="624" y="240" width="16" height="16" fill="#3a2b24"/>
<rect x="640" y="240" width="16" height="16" fill="#664f43"/>
<rect x="656" y="240" width="16" height="16" fill="#d1b39d"/>
<rect x="672" y="240" width="16" height="16" fill="#c7a389"/>
<rect x="688" y="240" width="16" height="16" fill="#e8d6c6"/>
<rect x="704" y="240" width="16" height="16" fill="#f6ece1"/>
<rect x="720" y="240" width="16" height="16" fill="#3a2b24"/>
<rect x="736" y="240" width="16" height="16" fill="#7e6556"/>
<rect x="336" y="256" width="16" height="16" fill="#e8d6c6"/>
<rect x="352" y="256" width="16" height="16" fill="#3a2b24"/>
<rect x="368" y="256" width="16" height="16" fill="#9a8373"/>
<rect x="384" y="256" width="16" height="16" fill="#e8d6c6"/>
<rect x="400" y="256" width="16" height="16" fill="#d1b39d"/>
<rect x="416" y="256" width="16" height="16" fill="#c7a389"/>
<rect x="432" y="256" width="16" height="16" fill="#c49579"/>
<rect x="448" y="256" width="16" height="16" fill="#c7a389"/>
<rect x="464" y="256" width="16" height="16" fill="#7e6556"/>
<rect x="480" y="256" width="16" height="16" fill="#3a2b24"/>
<rect x="496" y="256" width="112" height="16" fill="#664f43"/>
<rect x="608" y="256" width="16" height="16" fill="#3a2b24"/>
<rect x="624" y="256" width="16" height="16" fill="#7e6556"/>
<rect x="640" y="256" width="48" height="16" fill="#c49579"/>
<rect x="688" y="256" width="16" height="16" fill="#d1b39d"/>
<rect x="704" y="256" width="16" height="16" fill="#f6ece1"/>
<rect x="720" y="256" width="16" height="16" fill="#3a2b24"/>
<rect x="736" y="256" width="16" height="16" fill="#7e6556"/>
<rect x="336" y="272" width="16" height="16" fill="#e8d6c6"/>
<rect x="352" y="272" width="16" height="16" fill="#3a2b24"/>
<rect x="368" y="272" width="16" height="16" fill="#9a8373"/>
<rect x="384" y="272" width="16" height="16" fill="#e8d6c6"/>
<rect x="400" y="272" width="16" height="16" fill="#c7a389"/>
<rect x="416" y="272" width="48" height="16" fill="#c49579"/>
<rect x="464" y="272" width="16" height="16" fill="#9a8373"/>
<rect x="480" y="272" width="64" height="16" fill="#664f43"/>
<rect x="544" y="272" width="32" height="16" fill="#7e6556"/>
<rect x="576" y="272" width="64" height="16" fill="#664f43"/>
<rect x="640" y="272" width="48" height="16" fill="#c49579"/>
<rect x="688" y="272" width="16" height="16" fill="#e8d6c6"/>
<rect x="704" y="272" width="16" height="16" fill="#f6ece1"/>
<rect x="720" y="272" width="16" height="16" fill="#3a2b24"/>
<rect x="736" y="272" width="16" height="16" fill="#7e6556"/>
<rect x="336" y="288" width="16" height="16" fill="#e8d6c6"/>
<rect x="352" y="288" width="16" height="16" fill="#3a2b24"/>
<rect x="368" y="288" width="16" height="16" fill="#9a8373"/>
<rect x="384" y="288" width="16" height="16" fill="#e8d6c6"/>
<rect x="400" y="288" width="48" height="16" fill="#c49579"/>
<rect x="448" y="288" width="48" height="16" fill="#c7a389"/>
<rect x="496" y="288" width="48" height="16" fill="#9a8373"/>
<rect x="544" y="288" width="16" height="16" fill="#c7a389"/>
<rect x="560" y="288" width="16" height="16" fill="#e8d6c6"/>
<rect x="576" y="288" width="16" height="16" fill="#9a8373"/>
<rect x="592" y="288" width="16" height="16" fill="#7e6556"/>
<rect x="608" y="288" width="32" height="16" fill="#9a8373"/>
<rect x="640" y="288" width="32" height="16" fill="#c7a389"/>
<rect x="672" y="288" width="16" height="16" fill="#c49579"/>
<rect x="688" y="288" width="16" height="16" fill="#d1b39d"/>
<rect x="704" y="288" width="16" height="16" fill="#f6ece1"/>
<rect x="720" y="288" width="16" height="16" fill="#3a2b24"/>
<rect x="736" y="288" width="16" height="16" fill="#7e6556"/>
<rect x="336" y="304" width="16" height="16" fill="#e8d6c6"/>
<rect x="352" y="304" width="16" height="16" fill="#3a2b24"/>
<rect x="368" y="304" width="16" height="16" fill="#9a8373"/>
<rect x="384" y="304" width="16" height="16" fill="#e8d6c6"/>
<rect x="400" y="304" width="80" height="16" fill="#c7a389"/>
<rect x="480" y="304" width="16" height="16" fill="#d1b39d"/>
<rect x="496" y="304" width="32" height="16" fill="#9a8373"/>
<rect x="528" y="304" width="16" height="16" fill="#c49579"/>
<rect x="544" y="304" width="16" height="16" fill="#d1b39d"/>
<rect x="560" y="304" width="16" height="16" fill="#f6ece1"/>
<rect x="576" y="304" width="16" height="16" fill="#9a8373"/>
<rect x="592" y="304" width="16" height="16" fill="#c49579"/>
<rect x="608" y="304" width="16" height="16" fill="#9a8373"/>
<rect x="624" y="304" width="16" height="16" fill="#c49579"/>
<rect x="640" y="304" width="48" height="16" fill="#c7a389"/>
<rect x="688" y="304" width="16" height="16" fill="#c49579"/>
<rect x="704" y="304" width="16" height="16" fill="#e8d6c6"/>
<rect x="720" y="304" width="16" height="16" fill="#3a2b24"/>
<rect x="736" y="304" width="16" height="16" fill="#7e6556"/>
<rect x="336" y="320" width="16" height="16" fill="#e8d6c6"/>
<rect x="352" y="320" width="16" height="16" fill="#3a2b24"/>
<rect x="368" y="320" width="16" height="16" fill="#664f43"/>
<rect x="384" y="320" width="16" height="16" fill="#c49579"/>
<rect x="400" y="320" width="96" height="16" fill="#d1b39d"/>
<rect x="496" y="320" width="48" height="16" fill="#c7a389"/>
<rect x="544" y="320" width="16" height="16" fill="#e8d6c6"/>
<rect x="560" y="320" width="16" height="16" fill="#fcf6ef"/>
<rect x="576" y="320" width="16" height="16" fill="#e8d6c6"/>
<rect x="592" y="320" width="16" height="16" fill="#c7a389"/>
<rect x="608" y="320" width="16" height="16" fill="#c49579"/>
<rect x="624" y="320" width="64" height="16" fill="#d1b39d"/>
<rect x="688" y="320" width="32" height="16" fill="#c7a389"/>
<rect x="720" y="320" width="16" height="16" fill="#3a2b24"/>
<rect x="736" y="320" width="16" height="16" fill="#7e6556"/>
<rect x="320" y="336" width="16" height="16" fill="#d1b39d"/>
<rect x="336" y="336" width="16" height="16" fill="#9a8373"/>
<rect x="352" y="336" width="16" height="16" fill="#664f43"/>
<rect x="368" y="336" width="16" height="16" fill="#9a8373"/>
<rect x="384" y="336" width="16" height="16" fill="#c7a389"/>
<rect x="400" y="336" width="80" height="16" fill="#d1b39d"/>
<rect x="480" y="336" width="32" height="16" fill="#e8d6c6"/>
<rect x="512" y="336" width="16" height="16" fill="#c7a389"/>
<rect x="528" y="336" width="16" height="16" fill="#d1b39d"/>
<rect x="544" y="336" width="16" height="16" fill="#f6ece1"/>
<rect x="560" y="336" width="16" height="16" fill="#fcf6ef"/>
<rect x="576" y="336" width="16" height="16" fill="#f6ece1"/>
<rect x="592" y="336" width="112" height="16" fill="#d1b39d"/>
<rect x="704" y="336" width="16" height="16" fill="#c7a389"/>
<rect x="720" y="336" width="32" height="16" fill="#7e6556"/>
<rect x="752" y="336" width="16" height="16" fill="#9a8373"/>
<rect x="768" y="336" width="16" height="16" fill="#e8d6c6"/>
<rect x="320" y="352" width="16" height="16" fill="#664f43"/>
<rect x="336" y="352" width="16" height="16" fill="#3a2b24"/>
<rect x="352" y="352" width="16" height="16" fill="#c49579"/>
<rect x="368" y="352" width="16" height="16" fill="#c7a389"/>
<rect x="384" y="352" width="80" height="16" fill="#d1b39d"/>
<rect x="464" y="352" width="16" height="16" fill="#e8d6c6"/>
<rect x="480" y="352" width="32" height="16" fill="#f6ece1"/>
<rect x="512" y="352" width="16" height="16" fill="#e8d6c6"/>
<rect x="528" y="352" width="16" height="16" fill="#f6ece1"/>
<rect x="544" y="352" width="16" height="16" fill="#faf2e9"/>
<rect x="560" y="352" width="32" height="16" fill="#fcf6ef"/>
<rect x="592" y="352" width="16" height="16" fill="#f6ece1"/>
<rect x="608" y="352" width="64" height="16" fill="#e8d6c6"/>
<rect x="672" y="352" width="32" height="16" fill="#d1b39d"/>
<rect x="704" y="352" width="32" height="16" fill="#c7a389"/>
<rect x="736" y="352" width="16" height="16" fill="#7e6556"/>
<rect x="752" y="352" width="16" height="16" fill="#3a2b24"/>
<rect x="768" y="352" width="16" height="16" fill="#e8d6c6"/>
<rect x="320" y="368" width="16" height="16" fill="#664f43"/>
<rect x="336" y="368" width="16" height="16" fill="#3a2b24"/>
<rect x="352" y="368" width="16" height="16" fill="#c49579"/>
<rect x="368" y="368" width="16" height="16" fill="#c7a389"/>
<rect x="384" y="368" width="64" height="16" fill="#d1b39d"/>
<rect x="448" y="368" width="16" height="16" fill="#c49579"/>
<rect x="464" y="368" width="16" height="16" fill="#7e6556"/>
<rect x="480" y="368" width="16" height="16" fill="#d1b39d"/>
<rect x="496" y="368" width="16" height="16" fill="#e8d6c6"/>
<rect x="512" y="368" width="16" height="16" fill="#f9f2e8"/>
<rect x="528" y="368" width="80" height="16" fill="#fcf6ef"/>
<rect x="608" y="368" width="16" height="16" fill="#e8d6c6"/>
<rect x="624" y="368" width="16" height="16" fill="#c7a389"/>
<rect x="640" y="368" width="32" height="16" fill="#7e6556"/>
<rect x="672" y="368" width="16" height="16" fill="#c7a389"/>
<rect x="688" y="368" width="16" height="16" fill="#d1b39d"/>
<rect x="704" y="368" width="32" height="16" fill="#c7a389"/>
<rect x="736" y="368" width="16" height="16" fill="#7e6556"/>
<rect x="752" y="368" width="16" height="16" fill="#3a2b24"/>
<rect x="768" y="368" width="16" height="16" fill="#e8d6c6"/>
<rect x="320" y="384" width="16" height="16" fill="#664f43"/>
<rect x="336" y="384" width="16" height="16" fill="#3a2b24"/>
<rect x="352" y="384" width="16" height="16" fill="#c49579"/>
<rect x="368" y="384" width="48" height="16" fill="#c7a389"/>
<rect x="416" y="384" width="16" height="16" fill="#d1b39d"/>
<rect x="432" y="384" width="16" height="16" fill="#c7a389"/>
<rect x="448" y="384" width="16" height="16" fill="#664f43"/>
<rect x="464" y="384" width="32" height="16" fill="#3a2b24"/>
<rect x="496" y="384" width="16" height="16" fill="#9a8373"/>
<rect x="512" y="384" width="96" height="16" fill="#fcf6ef"/>
<rect x="608" y="384" width="16" height="16" fill="#e8d6c6"/>
<rect x="624" y="384" width="16" height="16" fill="#9a8373"/>
<rect x="640" y="384" width="48" height="16" fill="#3a2b24"/>
<rect x="688" y="384" width="16" height="16" fill="#9a8373"/>
<rect x="704" y="384" width="32" height="16" fill="#c7a389"/>
<rect x="736" y="384" width="16" height="16" fill="#7e6556"/>
<rect x="752" y="384" width="16" height="16" fill="#3a2b24"/>
<rect x="768" y="384" width="16" height="16" fill="#e8d6c6"/>
<rect x="288" y="400" width="16" height="16" fill="#e8d6c6"/>
<rect x="304" y="400" width="16" height="16" fill="#9a8373"/>
<rect x="320" y="400" width="32" height="16" fill="#664f43"/>
<rect x="352" y="400" width="32" height="16" fill="#9a8373"/>
<rect x="384" y="400" width="64" height="16" fill="#c49579"/>
<rect x="448" y="400" width="48" height="16" fill="#3a2b24"/>
<rect x="496" y="400" width="16" height="16" fill="#9a8373"/>
<rect x="512" y="400" width="80" height="16" fill="#fcf6ef"/>
<rect x="592" y="400" width="16" height="16" fill="#f6ece1"/>
<rect x="608" y="400" width="16" height="16" fill="#e8d6c6"/>
<rect x="624" y="400" width="16" height="16" fill="#c49579"/>
<rect x="640" y="400" width="48" height="16" fill="#3a2b24"/>
<rect x="688" y="400" width="16" height="16" fill="#7e6556"/>
<rect x="704" y="400" width="16" height="16" fill="#c7a389"/>
<rect x="720" y="400" width="16" height="16" fill="#9a8373"/>
<rect x="736" y="400" width="16" height="16" fill="#7e6556"/>
<rect x="752" y="400" width="16" height="16" fill="#664f43"/>
<rect x="768" y="400" width="16" height="16" fill="#7e6556"/>
<rect x="784" y="400" width="16" height="16" fill="#9a8373"/>
<rect x="288" y="416" width="16" height="16" fill="#d1b39d"/>
<rect x="304" y="416" width="16" height="16" fill="#3a2b24"/>
<rect x="320" y="416" width="16" height="16" fill="#664f43"/>
<rect x="336" y="416" width="16" height="16" fill="#7e6556"/>
<rect x="352" y="416" width="32" height="16" fill="#9a8373"/>
<rect x="384" y="416" width="16" height="16" fill="#c49579"/>
<rect x="400" y="416" width="16" height="16" fill="#c7a389"/>
<rect x="416" y="416" width="16" height="16" fill="#c49579"/>
<rect x="432" y="416" width="16" height="16" fill="#c7a389"/>
<rect x="448" y="416" width="16" height="16" fill="#7e6556"/>
<rect x="464" y="416" width="32" height="16" fill="#3a2b24"/>
<rect x="496" y="416" width="16" height="16" fill="#9a8373"/>
<rect x="512" y="416" width="32" height="16" fill="#fcf6ef"/>
<rect x="544" y="416" width="16" height="16" fill="#c7a389"/>
<rect x="560" y="416" width="32" height="16" fill="#664f43"/>
<rect x="592" y="416" width="16" height="16" fill="#c7a389"/>
<rect x="608" y="416" width="16" height="16" fill="#e8d6c6"/>
<rect x="624" y="416" width="16" height="16" fill="#c49579"/>
<rect x="640" y="416" width="32" height="16" fill="#3a2b24"/>
<rect x="672" y="416" width="16" height="16" fill="#664f43"/>
<rect x="688" y="416" width="48" height="16" fill="#c49579"/>
<rect x="736" y="416" width="32" height="16" fill="#9a8373"/>
<rect x="768" y="416" width="16" height="16" fill="#3a2b24"/>
<rect x="784" y="416" width="16" height="16" fill="#664f43"/>
<rect x="288" y="432" width="16" height="16" fill="#d1b39d"/>
<rect x="304" y="432" width="16" height="16" fill="#3a2b24"/>
<rect x="320" y="432" width="16" height="16" fill="#7e6556"/>
<rect x="336" y="432" width="16" height="16" fill="#c49579"/>
<rect x="352" y="432" width="48" height="16" fill="#c7a389"/>
<rect x="400" y="432" width="16" height="16" fill="#d1b39d"/>
<rect x="416" y="432" width="16" height="16" fill="#c7a389"/>
<rect x="432" y="432" width="32" height="16" fill="#c49579"/>
<rect x="464" y="432" width="32" height="16" fill="#e8d6c6"/>
<rect x="496" y="432" width="16" height="16" fill="#f6ece1"/>
<rect x="512" y="432" width="32" height="16" fill="#fcf6ef"/>
<rect x="544" y="432" width="16" height="16" fill="#e8d6c6"/>
<rect x="560" y="432" width="16" height="16" fill="#7e6556"/>
<rect x="576" y="432" width="16" height="16" fill="#9a8373"/>
<rect x="592" y="432" width="16" height="16" fill="#e8d6c6"/>
<rect x="608" y="432" width="48" height="16" fill="#f6ece1"/>
<rect x="656" y="432" width="16" height="16" fill="#e8d6c6"/>
<rect x="672" y="432" width="32" height="16" fill="#c49579"/>
<rect x="704" y="432" width="16" height="16" fill="#c7a389"/>
<rect x="720" y="432" width="32" height="16" fill="#c49579"/>
<rect x="752" y="432" width="16" height="16" fill="#7e6556"/>
<rect x="768" y="432" width="16" height="16" fill="#c7a389"/>
<rect x="784" y="432" width="16" height="16" fill="#d1b39d"/>
<rect x="288" y="448" width="16" height="16" fill="#d1b39d"/>
<rect x="304" y="448" width="16" height="16" fill="#3a2b24"/>
<rect x="320" y="448" width="16" height="16" fill="#664f43"/>
<rect x="336" y="448" width="16" height="16" fill="#7e6556"/>
<rect x="352" y="448" width="16" height="16" fill="#9a8373"/>
<rect x="368" y="448" width="16" height="16" fill="#c49579"/>
<rect x="384" y="448" width="16" height="16" fill="#c7a389"/>
<rect x="400" y="448" width="48" height="16" fill="#d1b39d"/>
<rect x="448" y="448" width="16" height="16" fill="#e8d6c6"/>
<rect x="464" y="448" width="16" height="16" fill="#f6ece1"/>
<rect x="480" y="448" width="16" height="16" fill="#faf2e9"/>
<rect x="496" y="448" width="16" height="16" fill="#fcf6ef"/>
<rect x="512" y="448" width="32" height="16" fill="#f8f2eb"/>
<rect x="544" y="448" width="16" height="16" fill="#f8f0e7"/>
<rect x="560" y="448" width="16" height="16" fill="#9a8373"/>
<rect x="576" y="448" width="16" height="16" fill="#d1b39d"/>
<rect x="592" y="448" width="16" height="16" fill="#f8f1e8"/>
<rect x="608" y="448" width="16" height="16" fill="#f6ece1"/>
<rect x="624" y="448" width="32" height="16" fill="#fcf6ef"/>
<rect x="656" y="448" width="48" height="16" fill="#e8d6c6"/>
<rect x="704" y="448" width="32" height="16" fill="#d1b39d"/>
<rect x="736" y="448" width="16" height="16" fill="#c49579"/>
<rect x="752" y="448" width="16" height="16" fill="#664f43"/>
<rect x="768" y="448" width="16" height="16" fill="#7e6556"/>
<rect x="784" y="448" width="16" height="16" fill="#9a8373"/>
<rect x="304" y="464" width="16" height="16" fill="#e8d6c6"/>
<rect x="320" y="464" width="16" height="16" fill="#9a8373"/>
<rect x="336" y="464" width="16" height="16" fill="#7e6556"/>
<rect x="352" y="464" width="32" height="16" fill="#c7a389"/>
<rect x="384" y="464" width="16" height="16" fill="#d1b39d"/>
<rect x="400" y="464" width="32" height="16" fill="#e8d6c6"/>
<rect x="432" y="464" width="16" height="16" fill="#f6ece1"/>
<rect x="448" y="464" width="16" height="16" fill="#faf2e9"/>
<rect x="464" y="464" width="48" height="16" fill="#fcf6ef"/>
<rect x="512" y="464" width="16" height="16" fill="#d1b39d"/>
<rect x="528" y="464" width="32" height="16" fill="#664f43"/>
<rect x="560" y="464" width="16" height="16" fill="#7e6556"/>
<rect x="576" y="464" width="16" height="16" fill="#664f43"/>
<rect x="592" y="464" width="16" height="16" fill="#9a8373"/>
<rect x="608" y="464" width="16" height="16" fill="#664f43"/>
<rect x="624" y="464" width="48" height="16" fill="#fcf6ef"/>
<rect x="672" y="464" width="16" height="16" fill="#f8f2eb"/>
<rect x="688" y="464" width="16" height="16" fill="#f9f0e7"/>
<rect x="704" y="464" width="32" height="16" fill="#e8d6c6"/>
<rect x="736" y="464" width="32" height="16" fill="#d1b39d"/>
<rect x="768" y="464" width="32" height="16" fill="#664f43"/>
<rect x="320" y="480" width="16" height="16" fill="#7e6556"/>
<rect x="336" y="480" width="16" height="16" fill="#664f43"/>
<rect x="352" y="480" width="16" height="16" fill="#d1b39d"/>
<rect x="368" y="480" width="16" height="16" fill="#c7a389"/>
<rect x="384" y="480" width="16" height="16" fill="#d1b39d"/>
<rect x="400" y="480" width="32" height="16" fill="#e8d6c6"/>
<rect x="432" y="480" width="16" height="16" fill="#f8f0e7"/>
<rect x="448" y="480" width="80" height="16" fill="#fcf6ef"/>
<rect x="528" y="480" width="32" height="16" fill="#d1b39d"/>
<rect x="560" y="480" width="16" height="16" fill="#f6ece1"/>
<rect x="576" y="480" width="16" height="16" fill="#e8d6c6"/>
<rect x="592" y="480" width="16" height="16" fill="#c7a389"/>
<rect x="608" y="480" width="16" height="16" fill="#e8d6c6"/>
<rect x="624" y="480" width="16" height="16" fill="#f9f0e7"/>
<rect x="640" y="480" width="48" height="16" fill="#fcf6ef"/>
<rect x="688" y="480" width="16" height="16" fill="#f6ece1"/>
<rect x="704" y="480" width="16" height="16" fill="#e8d6c6"/>
<rect x="720" y="480" width="16" height="16" fill="#9a8373"/>
<rect x="736" y="480" width="16" height="16" fill="#7e6556"/>
<rect x="752" y="480" width="16" height="16" fill="#664f43"/>
<rect x="768" y="480" width="16" height="16" fill="#c7a389"/>
<rect x="784" y="480" width="16" height="16" fill="#d1b39d"/>
<rect x="320" y="496" width="16" height="16" fill="#9a8373"/>
<rect x="336" y="496" width="32" height="16" fill="#7e6556"/>
<rect x="368" y="496" width="16" height="16" fill="#664f43"/>
<rect x="384" y="496" width="16" height="16" fill="#7e6556"/>
<rect x="400" y="496" width="16" height="16" fill="#c7a389"/>
<rect x="416" y="496" width="32" height="16" fill="#d1b39d"/>
<rect x="448" y="496" width="224" height="16" fill="#f6ece1"/>
<rect x="672" y="496" width="16" height="16" fill="#e8d6c6"/>
<rect x="688" y="496" width="16" height="16" fill="#c7a389"/>
<rect x="704" y="496" width="16" height="16" fill="#7e6556"/>
<rect x="720" y="496" width="16" height="16" fill="#664f43"/>
<rect x="736" y="496" width="32" height="16" fill="#7e6556"/>
<rect x="768" y="496" width="16" height="16" fill="#e8d6c6"/>
<rect x="336" y="512" width="16" height="16" fill="#e8d6c6"/>
<rect x="352" y="512" width="48" height="16" fill="#3a2b24"/>
<rect x="400" y="512" width="16" height="16" fill="#9a8373"/>
<rect x="416" y="512" width="16" height="16" fill="#c49579"/>
<rect x="432" y="512" width="16" height="16" fill="#c7a389"/>
<rect x="448" y="512" width="16" height="16" fill="#d1b39d"/>
<rect x="464" y="512" width="176" height="16" fill="#e8d6c6"/>
<rect x="640" y="512" width="32" height="16" fill="#d1b39d"/>
<rect x="672" y="512" width="16" height="16" fill="#c49579"/>
<rect x="688" y="512" width="16" height="16" fill="#7e6556"/>
<rect x="704" y="512" width="32" height="16" fill="#3a2b24"/>
<rect x="736" y="512" width="16" height="16" fill="#9a8373"/>
<rect x="400" y="528" width="48" height="16" fill="#3a2b24"/>
<rect x="448" y="528" width="16" height="16" fill="#7e6556"/>
<rect x="464" y="528" width="176" height="16" fill="#9a8373"/>
<rect x="640" y="528" width="32" height="16" fill="#664f43"/>
<rect x="672" y="528" width="16" height="16" fill="#3a2b24"/>
<rect x="688" y="528" width="16" height="16" fill="#9a8373"/>
<rect x="192" y="544" width="16" height="16" fill="#d1b39d"/>
<rect x="208" y="544" width="32" height="16" fill="#7e6556"/>
<rect x="240" y="544" width="16" height="16" fill="#9a8373"/>
<rect x="368" y="544" width="16" height="16" fill="#c7a389"/>
<rect x="384" y="544" width="48" height="16" fill="#7e6556"/>
<rect x="432" y="544" width="16" height="16" fill="#9a8373"/>
<rect x="448" y="544" width="32" height="16" fill="#c49579"/>
<rect x="480" y="544" width="32" height="16" fill="#c7a389"/>
<rect x="512" y="544" width="112" height="16" fill="#d1b39d"/>
<rect x="624" y="544" width="16" height="16" fill="#c49579"/>
<rect x="640" y="544" width="32" height="16" fill="#9a8373"/>
<rect x="672" y="544" width="16" height="16" fill="#3a2b24"/>
<rect x="688" y="544" width="16" height="16" fill="#9a8373"/>
<rect x="176" y="560" width="16" height="16" fill="#d1b39d"/>
<rect x="192" y="560" width="16" height="16" fill="#9a8373"/>
<rect x="208" y="560" width="32" height="16" fill="#664f43"/>
<rect x="240" y="560" width="16" height="16" fill="#7e6556"/>
<rect x="256" y="560" width="16" height="16" fill="#c7a389"/>
<rect x="352" y="560" width="16" height="16" fill="#c7a389"/>
<rect x="368" y="560" width="16" height="16" fill="#7e6556"/>
<rect x="384" y="560" width="16" height="16" fill="#664f43"/>
<rect x="400" y="560" width="16" height="16" fill="#9a8373"/>
<rect x="416" y="560" width="16" height="16" fill="#c49579"/>
<rect x="432" y="560" width="32" height="16" fill="#c7a389"/>
<rect x="464" y="560" width="32" height="16" fill="#d1b39d"/>
<rect x="496" y="560" width="144" height="16" fill="#e8d6c6"/>
<rect x="640" y="560" width="16" height="16" fill="#c7a389"/>
<rect x="656" y="560" width="16" height="16" fill="#c49579"/>
<rect x="672" y="560" width="16" height="16" fill="#664f43"/>
<rect x="688" y="560" width="16" height="16" fill="#7e6556"/>
<rect x="704" y="560" width="16" height="16" fill="#c7a389"/>
<rect x="176" y="576" width="16" height="16" fill="#3a2b24"/>
<rect x="192" y="576" width="16" height="16" fill="#664f43"/>
<rect x="208" y="576" width="32" height="16" fill="#c49579"/>
<rect x="240" y="576" width="16" height="16" fill="#7e6556"/>
<rect x="256" y="576" width="16" height="16" fill="#3a2b24"/>
<rect x="272" y="576" width="16" height="16" fill="#e8d6c6"/>
<rect x="336" y="576" width="16" height="16" fill="#e8d6c6"/>
<rect x="352" y="576" width="16" height="16" fill="#3a2b24"/>
<rect x="368" y="576" width="16" height="16" fill="#7e6556"/>
<rect x="384" y="576" width="48" height="16" fill="#c49579"/>
<rect x="432" y="576" width="16" height="16" fill="#c7a389"/>
<rect x="448" y="576" width="16" height="16" fill="#d1b39d"/>
<rect x="464" y="576" width="16" height="16" fill="#e8d6c6"/>
<rect x="480" y="576" width="16" height="16" fill="#fcf6ef"/>
<rect x="496" y="576" width="16" height="16" fill="#faf2e9"/>
<rect x="512" y="576" width="128" height="16" fill="#fcf6ef"/>
<rect x="640" y="576" width="16" height="16" fill="#d1b39d"/>
<rect x="656" y="576" width="32" height="16" fill="#c7a389"/>
<rect x="688" y="576" width="16" height="16" fill="#7e6556"/>
<rect x="704" y="576" width="16" height="16" fill="#3a2b24"/>
<rect x="720" y="576" width="16" height="16" fill="#e8d6c6"/>
<rect x="176" y="592" width="16" height="16" fill="#3a2b24"/>
<rect x="192" y="592" width="16" height="16" fill="#664f43"/>
<rect x="208" y="592" width="16" height="16" fill="#c7a389"/>
<rect x="224" y="592" width="16" height="16" fill="#c49579"/>
<rect x="240" y="592" width="16" height="16" fill="#7e6556"/>
<rect x="256" y="592" width="16" height="16" fill="#3a2b24"/>
<rect x="272" y="592" width="16" height="16" fill="#e8d6c6"/>
<rect x="336" y="592" width="16" height="16" fill="#7e6556"/>
<rect x="352" y="592" width="16" height="16" fill="#3a2b24"/>
<rect x="368" y="592" width="16" height="16" fill="#7e6556"/>
<rect x="384" y="592" width="32" height="16" fill="#c49579"/>
<rect x="416" y="592" width="16" height="16" fill="#c7a389"/>
<rect x="432" y="592" width="32" height="16" fill="#d1b39d"/>
<rect x="464" y="592" width="16" height="16" fill="#e8d6c6"/>
<rect x="480" y="592" width="160" height="16" fill="#fcf6ef"/>
<rect x="640" y="592" width="16" height="16" fill="#e8d6c6"/>
<rect x="656" y="592" width="16" height="16" fill="#d1b39d"/>
<rect x="672" y="592" width="16" height="16" fill="#c7a389"/>
<rect x="688" y="592" width="16" height="16" fill="#7e6556"/>
<rect x="704" y="592" width="16" height="16" fill="#3a2b24"/>
<rect x="720" y="592" width="16" height="16" fill="#e8d6c6"/>
<rect x="176" y="608" width="16" height="16" fill="#3a2b24"/>
<rect x="192" y="608" width="16" height="16" fill="#7e6556"/>
<rect x="208" y="608" width="32" height="16" fill="#c7a389"/>
<rect x="240" y="608" width="16" height="16" fill="#9a8373"/>
<rect x="256" y="608" width="16" height="16" fill="#3a2b24"/>
<rect x="272" y="608" width="16" height="16" fill="#e8d6c6"/>
<rect x="320" y="608" width="16" height="16" fill="#e8d6c6"/>
<rect x="336" y="608" width="16" height="16" fill="#d1b39d"/>
<rect x="352" y="608" width="16" height="16" fill="#3a2b24"/>
<rect x="368" y="608" width="16" height="16" fill="#7e6556"/>
<rect x="384" y="608" width="32" height="16" fill="#c49579"/>
<rect x="416" y="608" width="16" height="16" fill="#c7a389"/>
<rect x="432" y="608" width="32" height="16" fill="#d1b39d"/>
<rect x="464" y="608" width="16" height="16" fill="#e8d6c6"/>
<rect x="480" y="608" width="176" height="16" fill="#fcf6ef"/>
<rect x="656" y="608" width="16" height="16" fill="#d1b39d"/>
<rect x="672" y="608" width="16" height="16" fill="#c49579"/>
<rect x="688" y="608" width="16" height="16" fill="#7e6556"/>
<rect x="704" y="608" width="16" height="16" fill="#3a2b24"/>
<rect x="720" y="608" width="16" height="16" fill="#e8d6c6"/>
<rect x="176" y="624" width="16" height="16" fill="#3a2b24"/>
<rect x="192" y="624" width="16" height="16" fill="#664f43"/>
<rect x="208" y="624" width="32" height="16" fill="#c7a389"/>
<rect x="240" y="624" width="16" height="16" fill="#9a8373"/>
<rect x="256" y="624" width="16" height="16" fill="#3a2b24"/>
<rect x="272" y="624" width="16" height="16" fill="#e8d6c6"/>
<rect x="320" y="624" width="16" height="16" fill="#664f43"/>
<rect x="336" y="624" width="16" height="16" fill="#3a2b24"/>
<rect x="352" y="624" width="16" height="16" fill="#c7a389"/>
<rect x="368" y="624" width="32" height="16" fill="#c49579"/>
<rect x="400" y="624" width="32" height="16" fill="#7e6556"/>
<rect x="432" y="624" width="32" height="16" fill="#d1b39d"/>
<rect x="464" y="624" width="16" height="16" fill="#e8d6c6"/>
<rect x="480" y="624" width="160" height="16" fill="#fcf6ef"/>
<rect x="640" y="624" width="16" height="16" fill="#faf1e8"/>
<rect x="656" y="624" width="16" height="16" fill="#d1b39d"/>
<rect x="672" y="624" width="16" height="16" fill="#c49579"/>
<rect x="688" y="624" width="16" height="16" fill="#664f43"/>
<rect x="704" y="624" width="16" height="16" fill="#3a2b24"/>
<rect x="720" y="624" width="16" height="16" fill="#e8d6c6"/>
<rect x="176" y="640" width="16" height="16" fill="#3a2b24"/>
<rect x="192" y="640" width="16" height="16" fill="#664f43"/>
<rect x="208" y="640" width="32" height="16" fill="#c49579"/>
<rect x="240" y="640" width="16" height="16" fill="#7e6556"/>
<rect x="256" y="640" width="16" height="16" fill="#664f43"/>
<rect x="272" y="640" width="16" height="16" fill="#9a8373"/>
<rect x="288" y="640" width="16" height="16" fill="#c7a389"/>
<rect x="320" y="640" width="16" height="16" fill="#664f43"/>
<rect x="336" y="640" width="16" height="16" fill="#3a2b24"/>
<rect x="352" y="640" width="48" height="16" fill="#c7a389"/>
<rect x="400" y="640" width="16" height="16" fill="#7e6556"/>
<rect x="416" y="640" width="16" height="16" fill="#664f43"/>
<rect x="432" y="640" width="16" height="16" fill="#c7a389"/>
<rect x="448" y="640" width="32" height="16" fill="#d1b39d"/>
<rect x="480" y="640" width="16" height="16" fill="#f8f0e7"/>
<rect x="496" y="640" width="16" height="16" fill="#fcf6ef"/>
<rect x="512" y="640" width="16" height="16" fill="#e8d6c6"/>
<rect x="528" y="640" width="16" height="16" fill="#c7a389"/>
<rect x="544" y="640" width="48" height="16" fill="#fcf6ef"/>
<rect x="592" y="640" width="16" height="16" fill="#f6ece1"/>
<rect x="608" y="640" width="16" height="16" fill="#faf2e9"/>
<rect x="624" y="640" width="32" height="16" fill="#f6ece1"/>
<rect x="656" y="640" width="48" height="16" fill="#7e6556"/>
<rect x="704" y="640" width="16" height="16" fill="#3a2b24"/>
<rect x="720" y="640" width="16" height="16" fill="#e8d6c6"/>
<rect x="176" y="656" width="16" height="16" fill="#e8d6c6"/>
<rect x="192" y="656" width="16" height="16" fill="#9a8373"/>
<rect x="208" y="656" width="16" height="16" fill="#3a2b24"/>
<rect x="224" y="656" width="16" height="16" fill="#9a8373"/>
<rect x="240" y="656" width="32" height="16" fill="#c49579"/>
<rect x="272" y="656" width="32" height="16" fill="#3a2b24"/>
<rect x="304" y="656" width="16" height="16" fill="#664f43"/>
<rect x="320" y="656" width="32" height="16" fill="#3a2b24"/>
<rect x="352" y="656" width="48" height="16" fill="#c7a389"/>
<rect x="400" y="656" width="16" height="16" fill="#7e6556"/>
<rect x="416" y="656" width="16" height="16" fill="#664f43"/>
<rect x="432" y="656" width="16" height="16" fill="#c7a389"/>
<rect x="448" y="656" width="64" height="16" fill="#d1b39d"/>
<rect x="512" y="656" width="16" height="16" fill="#c7a389"/>
<rect x="528" y="656" width="16" height="16" fill="#9a8373"/>
<rect x="544" y="656" width="16" height="16" fill="#f8f2eb"/>
<rect x="560" y="656" width="16" height="16" fill="#fcf6ef"/>
<rect x="576" y="656" width="16" height="16" fill="#f8f0e7"/>
<rect x="592" y="656" width="48" height="16" fill="#e8d6c6"/>
<rect x="640" y="656" width="16" height="16" fill="#d1b39d"/>
<rect x="656" y="656" width="16" height="16" fill="#664f43"/>
<rect x="672" y="656" width="32" height="16" fill="#7e6556"/>
<rect x="704" y="656" width="16" height="16" fill="#3a2b24"/>
<rect x="720" y="656" width="16" height="16" fill="#e8d6c6"/>
<rect x="192" y="672" width="16" height="16" fill="#9a8373"/>
<rect x="208" y="672" width="16" height="16" fill="#3a2b24"/>
<rect x="224" y="672" width="16" height="16" fill="#9a8373"/>
<rect x="240" y="672" width="16" height="16" fill="#c49579"/>
<rect x="256" y="672" width="16" height="16" fill="#9a8373"/>
<rect x="272" y="672" width="32" height="16" fill="#7e6556"/>
<rect x="304" y="672" width="16" height="16" fill="#664f43"/>
<rect x="320" y="672" width="32" height="16" fill="#3a2b24"/>
<rect x="352" y="672" width="48" height="16" fill="#c7a389"/>
<rect x="400" y="672" width="16" height="16" fill="#7e6556"/>
<rect x="416" y="672" width="16" height="16" fill="#3a2b24"/>
<rect x="432" y="672" width="16" height="16" fill="#c7a389"/>
<rect x="448" y="672" width="64" height="16" fill="#d1b39d"/>
<rect x="512" y="672" width="16" height="16" fill="#9a8373"/>
<rect x="528" y="672" width="16" height="16" fill="#664f43"/>
<rect x="544" y="672" width="16" height="16" fill="#d1b39d"/>
<rect x="560" y="672" width="16" height="16" fill="#e8d6c6"/>
<rect x="576" y="672" width="16" height="16" fill="#c49579"/>
<rect x="592" y="672" width="16" height="16" fill="#7e6556"/>
<rect x="608" y="672" width="16" height="16" fill="#c49579"/>
<rect x="624" y="672" width="32" height="16" fill="#d1b39d"/>
<rect x="656" y="672" width="48" height="16" fill="#664f43"/>
<rect x="704" y="672" width="16" height="16" fill="#3a2b24"/>
<rect x="720" y="672" width="16" height="16" fill="#e8d6c6"/>
<rect x="192" y="688" width="16" height="16" fill="#d1b39d"/>
<rect x="208" y="688" width="80" height="16" fill="#7e6556"/>
<rect x="288" y="688" width="32" height="16" fill="#9a8373"/>
<rect x="320" y="688" width="32" height="16" fill="#3a2b24"/>
<rect x="352" y="688" width="16" height="16" fill="#c49579"/>
<rect x="368" y="688" width="16" height="16" fill="#c7a389"/>
<rect x="384" y="688" width="16" height="16" fill="#c49579"/>
<rect x="400" y="688" width="32" height="16" fill="#664f43"/>
<rect x="432" y="688" width="16" height="16" fill="#7e6556"/>
<rect x="448" y="688" width="16" height="16" fill="#c7a389"/>
<rect x="464" y="688" width="48" height="16" fill="#d1b39d"/>
<rect x="512" y="688" width="16" height="16" fill="#9a8373"/>
<rect x="528" y="688" width="16" height="16" fill="#3a2b24"/>
<rect x="544" y="688" width="16" height="16" fill="#9a8373"/>
<rect x="560" y="688" width="16" height="16" fill="#c7a389"/>
<rect x="576" y="688" width="16" height="16" fill="#3a2b24"/>
<rect x="592" y="688" width="16" height="16" fill="#7e6556"/>
<rect x="608" y="688" width="48" height="16" fill="#c7a389"/>
<rect x="656" y="688" width="32" height="16" fill="#664f43"/>
<rect x="688" y="688" width="32" height="16" fill="#7e6556"/>
<rect x="224" y="704" width="32" height="16" fill="#664f43"/>
<rect x="256" y="704" width="64" height="16" fill="#7e6556"/>
<rect x="320" y="704" width="32" height="16" fill="#3a2b24"/>
<rect x="352" y="704" width="48" height="16" fill="#9a8373"/>
<rect x="400" y="704" width="32" height="16" fill="#664f43"/>
<rect x="432" y="704" width="16" height="16" fill="#3a2b24"/>
<rect x="448" y="704" width="16" height="16" fill="#c7a389"/>
<rect x="464" y="704" width="48" height="16" fill="#d1b39d"/>
<rect x="512" y="704" width="16" height="16" fill="#9a8373"/>
<rect x="528" y="704" width="16" height="16" fill="#3a2b24"/>
<rect x="544" y="704" width="32" height="16" fill="#664f43"/>
<rect x="576" y="704" width="16" height="16" fill="#3a2b24"/>
<rect x="592" y="704" width="16" height="16" fill="#7e6556"/>
<rect x="608" y="704" width="48" height="16" fill="#c7a389"/>
<rect x="656" y="704" width="16" height="16" fill="#664f43"/>
<rect x="672" y="704" width="16" height="16" fill="#3a2b24"/>
<rect x="688" y="704" width="16" height="16" fill="#9a8373"/>
<rect x="240" y="720" width="16" height="16" fill="#d1b39d"/>
<rect x="256" y="720" width="96" height="16" fill="#3a2b24"/>
<rect x="352" y="720" width="32" height="16" fill="#7e6556"/>
<rect x="384" y="720" width="32" height="16" fill="#9a8373"/>
<rect x="416" y="720" width="16" height="16" fill="#7e6556"/>
<rect x="432" y="720" width="16" height="16" fill="#3a2b24"/>
<rect x="448" y="720" width="16" height="16" fill="#c7a389"/>
<rect x="464" y="720" width="16" height="16" fill="#d1b39d"/>
<rect x="480" y="720" width="32" height="16" fill="#e8d6c6"/>
<rect x="512" y="720" width="16" height="16" fill="#9a8373"/>
<rect x="528" y="720" width="16" height="16" fill="#3a2b24"/>
<rect x="544" y="720" width="32" height="16" fill="#664f43"/>
<rect x="576" y="720" width="16" height="16" fill="#3a2b24"/>
<rect x="592" y="720" width="16" height="16" fill="#7e6556"/>
<rect x="608" y="720" width="48" height="16" fill="#d1b39d"/>
<rect x="656" y="720" width="16" height="16" fill="#664f43"/>
<rect x="672" y="720" width="16" height="16" fill="#3a2b24"/>
<rect x="688" y="720" width="16" height="16" fill="#9a8373"/>
<rect x="240" y="736" width="16" height="16" fill="#e8d6c6"/>
<rect x="256" y="736" width="80" height="16" fill="#d1b39d"/>
<rect x="336" y="736" width="16" height="16" fill="#c7a389"/>
<rect x="352" y="736" width="16" height="16" fill="#3a2b24"/>
<rect x="368" y="736" width="16" height="16" fill="#7e6556"/>
<rect x="384" y="736" width="16" height="16" fill="#e8d6c6"/>
<rect x="400" y="736" width="32" height="16" fill="#d1b39d"/>
<rect x="432" y="736" width="16" height="16" fill="#3a2b24"/>
<rect x="448" y="736" width="16" height="16" fill="#d1b39d"/>
<rect x="464" y="736" width="16" height="16" fill="#f6ece1"/>
<rect x="480" y="736" width="32" height="16" fill="#fcf6ef"/>
<rect x="512" y="736" width="16" height="16" fill="#d1b39d"/>
<rect x="528" y="736" width="16" height="16" fill="#664f43"/>
<rect x="544" y="736" width="16" height="16" fill="#3a2b24"/>
<rect x="560" y="736" width="16" height="16" fill="#664f43"/>
<rect x="576" y="736" width="16" height="16" fill="#3a2b24"/>
<rect x="592" y="736" width="16" height="16" fill="#9a8373"/>
<rect x="608" y="736" width="16" height="16" fill="#f6ece1"/>
<rect x="624" y="736" width="16" height="16" fill="#f8f2eb"/>
<rect x="640" y="736" width="16" height="16" fill="#f9f0e9"/>
<rect x="656" y="736" width="16" height="16" fill="#9a8373"/>
<rect x="672" y="736" width="16" height="16" fill="#3a2b24"/>
<rect x="688" y="736" width="16" height="16" fill="#664f43"/>
<rect x="704" y="736" width="16" height="16" fill="#7e6556"/>
<rect x="352" y="752" width="16" height="16" fill="#7e6556"/>
<rect x="368" y="752" width="64" height="16" fill="#9a8373"/>
<rect x="432" y="752" width="16" height="16" fill="#3a2b24"/>
<rect x="448" y="752" width="16" height="16" fill="#d1b39d"/>
<rect x="464" y="752" width="16" height="16" fill="#e8d6c6"/>
<rect x="480" y="752" width="16" height="16" fill="#f8f2eb"/>
<rect x="496" y="752" width="16" height="16" fill="#f6ece1"/>
<rect x="512" y="752" width="16" height="16" fill="#e8d6c6"/>
<rect x="528" y="752" width="16" height="16" fill="#c7a389"/>
<rect x="544" y="752" width="16" height="16" fill="#3a2b24"/>
<rect x="560" y="752" width="16" height="16" fill="#664f43"/>
<rect x="576" y="752" width="16" height="16" fill="#3a2b24"/>
<rect x="592" y="752" width="16" height="16" fill="#7e6556"/>
<rect x="608" y="752" width="16" height="16" fill="#e8d6c6"/>
<rect x="624" y="752" width="16" height="16" fill="#f6ece1"/>
<rect x="640" y="752" width="32" height="16" fill="#e8d6c6"/>
<rect x="672" y="752" width="16" height="16" fill="#7e6556"/>
<rect x="688" y="752" width="16" height="16" fill="#9a8373"/>
<rect x="704" y="752" width="16" height="16" fill="#7e6556"/>
<rect x="368" y="768" width="16" height="16" fill="#9a8373"/>
<rect x="384" y="768" width="48" height="16" fill="#664f43"/>
<rect x="432" y="768" width="16" height="16" fill="#3a2b24"/>
<rect x="448" y="768" width="32" height="16" fill="#c7a389"/>
<rect x="480" y="768" width="16" height="16" fill="#e8d6c6"/>
<rect x="496" y="768" width="32" height="16" fill="#d1b39d"/>
<rect x="528" y="768" width="16" height="16" fill="#9a8373"/>
<rect x="544" y="768" width="16" height="16" fill="#664f43"/>
<rect x="560" y="768" width="32" height="16" fill="#3a2b24"/>
<rect x="592" y="768" width="16" height="16" fill="#7e6556"/>
<rect x="608" y="768" width="16" height="16" fill="#c7a389"/>
<rect x="624" y="768" width="16" height="16" fill="#e8d6c6"/>
<rect x="640" y="768" width="16" height="16" fill="#d1b39d"/>
<rect x="656" y="768" width="16" height="16" fill="#c7a389"/>
<rect x="672" y="768" width="16" height="16" fill="#664f43"/>
<rect x="688" y="768" width="16" height="16" fill="#9a8373"/>
<rect x="448" y="784" width="16" height="16" fill="#664f43"/>
<rect x="464" y="784" width="64" height="16" fill="#3a2b24"/>
<rect x="528" y="784" width="16" height="16" fill="#7e6556"/>
<rect x="592" y="784" width="16" height="16" fill="#9a8373"/>
<rect x="608" y="784" width="64" height="16" fill="#3a2b24"/>
<rect x="512" y="800" width="16" height="16" fill="#e8d6c6"/>
<rect x="640" y="800" width="16" height="16" fill="#e8d6c6"/>
</g>
</svg>